<?xml version="1.0" encoding="UTF-8" standalone="no"?>
<!-- Created with Inkscape (http://www.inkscape.org/) -->

<svg
   width="180mm"
   height="180mm"
   viewBox="0 0 180 180"
   version="1.1"
   id="svg1"
   xml:space="preserve"
   inkscape:version="1.4 (86a8ad7, 2024-10-11)"
   sodipodi:docname="athar.svg"
   xmlns:inkscape="http://www.inkscape.org/namespaces/inkscape"
   xmlns:sodipodi="http://sodipodi.sourceforge.net/DTD/sodipodi-0.dtd"
   xmlns="http://www.w3.org/2000/svg"
   xmlns:svg="http://www.w3.org/2000/svg"><sodipodi:namedview
     id="namedview1"
     pagecolor="#ffffff"
     bordercolor="#000000"
     borderopacity="0.25"
     inkscape:showpageshadow="2"
     inkscape:pageopacity="0.0"
     inkscape:pagecheckerboard="0"
     inkscape:deskcolor="#d1d1d1"
     inkscape:document-units="mm"
     inkscape:zoom="0.72604517"
     inkscape:cx="225.88126"
     inkscape:cy="339.51056"
     inkscape:window-width="1920"
     inkscape:window-height="1017"
     inkscape:window-x="-8"
     inkscape:window-y="-8"
     inkscape:window-maximized="1"
     inkscape:current-layer="layer1" /><defs
     id="defs1"><clipPath
       clipPathUnits="userSpaceOnUse"
       id="clipPath2"><g
         inkscape:label="Clip"
         id="use2" /></clipPath><clipPath
       clipPathUnits="userSpaceOnUse"
       id="clipPath4"><rect
         style="fill:#6b3a21;fill-opacity:1;stroke-width:0.322067"
         id="rect4"
         width="122.74007"
         height="150.99557"
         x="76.310425"
         y="-106.16621"
         ry="0"
         transform="matrix(0.80945964,0.58717551,0.60493704,-0.79627331,0,0)" /></clipPath></defs><g
     inkscape:label="Layer 1"
     inkscape:groupmode="layer"
     id="layer1"><g
       id="g4"><path
         style="fill:#216b39;fill-opacity:1"
         d="m 53.535194,150.43504 c 1.7e-4,-0.0123 0.19903,-0.91533 0.4419,-2.00673 0.3934,-1.76782 0.45833,-5.37163 0.595,-33.02324 l 0.15342,-31.038877 7.14375,-5.24912 7.14375,-5.24912 0.0686,13.20309 0.0686,13.203097 h 19.08377 19.083776 l -0.13756,-1.653657 c -0.26312,-3.16298 -1.85341,-6.35576 -3.90655,-7.84305 l -1.01513,-0.73535 9.7033,-7.05478 9.70329,-7.05478 0.0747,19.77758 c 0.0553,14.649957 -0.007,20.086267 -0.24003,20.968207 -1.08997,4.1239 -4.29235,6.94229 -8.69817,7.65521 -1.09812,0.17769 -9.28619,0.27901 -22.651366,0.28029 l -20.93156,0.002 -0.14483,5.09323 c -0.16958,5.96417 -0.59042,7.9985 -2.42197,11.70781 -1.90485,3.85777 -4.62118,6.44121 -8.37727,7.96744 -1.16151,0.47197 -4.74236,1.26586 -4.73936,1.05075 z m 79.435816,-26.11329 c -2.88424,-0.4804 -5.26733,-2.02608 -6.90511,-4.47868 -1.99624,-2.9894 -1.88727,-0.36312 -1.88727,-45.483517 V 34.129639 l 3.59704,2.663124 c 1.97837,1.464718 3.73455,2.713965 3.90261,2.776104 0.16806,0.06214 0.81927,-0.774716 1.44713,-1.859679 0.95937,-1.657799 3.41435,-5.078256 5.60888,-7.814696 0.50582,-0.630721 0.512,-0.734266 0.13122,-2.196185 -0.5507,-2.114303 -1.09327,-3.06836 -1.93341,-3.399733 -0.46107,-0.18186 -2.39643,-0.233206 -5.45046,-0.144603 -5.03313,0.146021 -8.84253,-0.09819 -11.28253,-0.723286 -3.41108,-0.873879 -7.23872,-4.067963 -10.21551,-8.524638 -1.67064,-2.501186 -3.73668,-6.3280293 -3.52678,-6.5325293 0.0699,-0.06807 3.87749,-0.162333 8.46139,-0.209476 8.14004,-0.08372 8.36921,-0.07176 9.82817,0.51255 2.16872,0.8685776 4.46405,2.4340903 6.24368,4.2584663 3.32134,3.404836 6.47232,8.643934 7.89291,13.123447 0.41534,1.309688 0.79091,2.432643 0.83459,2.495457 0.0437,0.06281 0.46458,-0.247348 0.93535,-0.689248 2.90942,-2.731047 7.95611,-4.859715 12.49709,-5.271207 2.41145,-0.218521 5.25314,0.370632 7.22279,1.497463 1.18669,0.678901 4.90649,4.092673 11.66879,10.708788 l 1.42858,1.397695 -1.69316,0.855266 c -2.41046,1.217595 -5.0085,2.050413 -7.53678,2.415965 -5.18824,0.750142 -8.38878,-0.903632 -16.17929,-8.360125 -2.07166,-1.98284 -4.08379,-3.725739 -4.4714,-3.873107 -0.5921,-0.225117 -0.87033,-0.153193 -1.74073,0.449997 -2.16416,1.499762 -5.5401,5.949617 -8.11132,10.691609 l -1.08434,1.999802 5.51088,4.036423 5.51088,4.03642 -1.63535,1.63669 c -1.76396,1.76541 -2.60736,3.48951 -3.06565,6.2669 -0.13476,0.8167 -0.24079,16.1121 -0.24165,34.85886 l -0.002,33.403657 -2.18281,-0.0309 c -1.20055,-0.017 -2.81015,-0.13542 -3.57689,-0.26313 z M 51.418214,73.078673 c 0,-1.68539 0.0934,-2.17576 0.48096,-2.52654 1.11772,-1.01152 2.42946,-4.76666 2.42946,-6.95486 0,-0.91637 0.14292,-1.23178 0.81405,-1.7965 1.72608,-1.45239 2.90858,-0.61235 3.13845,2.22953 l 0.14854,1.83653 0.8599,-0.6749 0.85989,-0.6749 v -3.1087 c 0,-3.69115 0.3728,-5.03147 1.87374,-6.73662 1.48046,-1.68191 5.19545,-4.14411 6.52087,-4.32189 0.85711,-0.11496 1.17992,-0.0324 1.62884,0.41651 0.49778,0.49777 0.55989,0.86273 0.55989,3.28998 0,3.80269 -0.74814,6.14608 -2.6218,8.2123 -0.5774,0.63674 -15.36895,12.12424 -16.36206,12.70719 -0.25306,0.14855 -0.33073,-0.29696 -0.33073,-1.89713 z m 13.75096,-12.91544 c 1.52087,-1.00647 1.85946,-1.67159 1.85946,-3.65272 0,-0.94242 -0.12123,-1.78841 -0.26941,-1.87999 -0.34369,-0.21241 -1.98925,0.79684 -2.50891,1.53876 -0.26997,0.38544 -0.39668,1.22366 -0.39668,2.62414 0,1.13178 0.0621,2.05779 0.13797,2.05779 0.0759,0 0.60578,-0.30959 1.17757,-0.68798 z m 27.52233,7.8491 c -1.83201,-0.55727 -3.48931,-1.96649 -4.3742,-3.71943 -0.25652,-0.50816 -0.52283,-1.71262 -0.59181,-2.67658 -0.22713,-3.17447 1.11059,-5.69863 3.72117,-7.02151 4.79857,-2.43162 10.280216,0.55578 10.703856,5.83342 0.35745,4.45303 -2.835306,7.87552 -7.284416,7.80857 -0.83128,-0.0125 -1.80985,-0.11352 -2.1746,-0.22447 z m 18.654836,-0.36231 c -2.65933,-1.28128 -4.13411,-3.64963 -4.13411,-6.63893 0,-4.46958 3.49281,-7.6392 7.9707,-7.23316 4.55886,0.41338 7.54028,4.81145 6.25613,9.22879 -0.94991,3.26758 -3.21026,4.99239 -6.78543,5.17778 -1.68598,0.0874 -2.1833,0.007 -3.30729,-0.53448 z m -8.24654,-16.83451 c -1.38894,-0.34357 -3.238106,-1.57642 -4.054116,-2.70288 -1.10234,-1.52174 -1.41033,-2.67828 -1.26271,-4.74155 0.27371,-3.825375 3.073066,-6.395547 6.968156,-6.397648 2.06658,-0.0011 3.62513,0.688191 5.03754,2.227963 3.98911,4.348805 1.38768,11.061005 -4.52774,11.682465 -0.72761,0.0765 -1.70011,0.0457 -2.16113,-0.0683 z"
         id="path3"
         sodipodi:nodetypes="csscccccccsscccccsscssscccsscssssssssscssssscssscsssssscccssccsccssssscccsssssssssssssssssssssscssssccssssccc" /><path
         style="fill:#5d4037;fill-opacity:1"
         d="m 53.277515,150.9504 c 1.71e-4,-0.0123 0.199026,-0.91533 0.4419,-2.00673 0.393399,-1.76782 0.458331,-5.37163 0.595001,-33.02324 l 0.153412,-31.038873 7.14375,-5.24912 7.14375,-5.24912 0.06859,13.20309 0.06859,13.203093 h 19.083778 19.083774 l -0.13756,-1.653653 c -0.26312,-3.16298 -1.85341,-6.35576 -3.90655,-7.84305 l -1.01513,-0.73535 9.7033,-7.05478 9.70329,-7.05478 0.0747,19.77758 c 0.0553,14.649953 -0.007,20.086263 -0.24003,20.968203 -1.08997,4.1239 -4.29235,6.94229 -8.69817,7.65521 -1.09812,0.17769 -9.28619,0.27901 -22.651363,0.28029 l -20.931567,0.002 -0.144823,5.09323 c -0.169588,5.96417 -0.590426,7.9985 -2.421974,11.70781 -1.904853,3.85777 -4.621182,6.44121 -8.377267,7.96744 -1.161512,0.47197 -4.742367,1.26586 -4.739367,1.05075 z m 79.435815,-26.11329 c -2.88424,-0.4804 -5.26733,-2.02608 -6.90511,-4.47868 -1.99624,-2.9894 -1.88727,-0.36312 -1.88727,-45.483513 V 34.645003 l 3.59704,2.663124 c 1.97837,1.464718 3.73455,2.713965 3.90261,2.776104 0.16806,0.06214 0.81927,-0.774716 1.44713,-1.859679 0.95937,-1.657799 3.41435,-5.078256 5.60888,-7.814696 0.50582,-0.630721 0.512,-0.734266 0.13122,-2.196185 -0.5507,-2.114303 -1.09327,-3.06836 -1.93341,-3.399733 -0.46107,-0.18186 -2.39643,-0.233206 -5.45046,-0.144603 -5.03313,0.146021 -8.84253,-0.09819 -11.28253,-0.723286 -3.41108,-0.873879 -7.23872,-4.067963 -10.21551,-8.524638 -1.67064,-2.501186 -3.73668,-6.3280296 -3.52678,-6.5325296 0.0699,-0.06807 3.87749,-0.162333 8.46139,-0.209476 8.14004,-0.08372 8.36921,-0.07176 9.82817,0.51255 2.16872,0.8685776 4.46405,2.4340906 6.24368,4.2584666 3.32134,3.404836 6.47232,8.643934 7.89291,13.123447 0.41534,1.309688 0.79091,2.432643 0.83459,2.495457 0.0437,0.06281 0.46458,-0.247348 0.93535,-0.689248 2.90942,-2.731047 7.95611,-4.859715 12.49709,-5.271207 2.41145,-0.218521 5.25314,0.370632 7.22279,1.497463 1.18669,0.678901 4.90649,4.092673 11.66879,10.708788 l 1.42858,1.397695 -1.69316,0.855266 c -2.41046,1.217595 -5.0085,2.050413 -7.53678,2.415965 -5.18824,0.750142 -8.38878,-0.903632 -16.17929,-8.360125 -2.07166,-1.98284 -4.08379,-3.725739 -4.4714,-3.873107 -0.5921,-0.225117 -0.87033,-0.153193 -1.74073,0.449997 -2.16416,1.499762 -5.5401,5.949617 -8.11132,10.691609 l -1.08434,1.999802 5.51088,4.036423 5.51088,4.03642 -1.63535,1.63669 c -1.76396,1.76541 -2.60736,3.48951 -3.06565,6.2669 -0.13476,0.8167 -0.24079,16.1121 -0.24165,34.85886 l -0.002,33.403653 -2.18281,-0.0309 c -1.20055,-0.017 -2.81015,-0.13542 -3.57689,-0.26313 z M 51.160536,73.594037 c 0,-1.68539 0.09335,-2.17576 0.48096,-2.52654 1.117721,-1.01152 2.429457,-4.76666 2.429457,-6.95486 0,-0.91637 0.142923,-1.23178 0.81405,-1.7965 1.726075,-1.45239 2.908582,-0.61235 3.138445,2.22953 l 0.148547,1.83653 0.859896,-0.6749 0.859895,-0.6749 v -3.1087 c 0,-3.69115 0.372798,-5.03147 1.873732,-6.73662 1.480469,-1.68191 5.195455,-4.14411 6.520874,-4.32189 0.857109,-0.11496 1.17992,-0.0324 1.628844,0.41651 0.497776,0.49777 0.559884,0.86273 0.559884,3.28998 0,3.80269 -0.748134,6.14608 -2.621798,8.2123 -0.577403,0.63674 -15.368948,12.12424 -16.362057,12.70719 -0.253062,0.14855 -0.330729,-0.29696 -0.330729,-1.89713 z m 13.750955,-12.91544 c 1.520875,-1.00647 1.859462,-1.67159 1.859462,-3.65272 0,-0.94242 -0.121234,-1.78841 -0.269408,-1.87999 -0.343691,-0.21241 -1.98925,0.79684 -2.508914,1.53876 -0.269968,0.38544 -0.396678,1.22366 -0.396678,2.62414 0,1.13178 0.06208,2.05779 0.137965,2.05779 0.07588,0 0.605788,-0.30959 1.177573,-0.68798 z m 27.522333,7.8491 c -1.832007,-0.55727 -3.489311,-1.96649 -4.3742,-3.71943 -0.256523,-0.50816 -0.522836,-1.71262 -0.591807,-2.67658 -0.227132,-3.17447 1.110588,-5.69863 3.721165,-7.02151 4.798573,-2.43162 10.280218,0.55578 10.703858,5.83342 0.35745,4.45303 -2.835305,7.87552 -7.284416,7.80857 -0.831286,-0.0125 -1.809856,-0.11352 -2.1746,-0.22447 z m 18.654836,-0.36231 c -2.65933,-1.28128 -4.13411,-3.64963 -4.13411,-6.63893 0,-4.46958 3.49281,-7.6392 7.9707,-7.23316 4.55886,0.41338 7.54028,4.81145 6.25613,9.22879 -0.94991,3.26758 -3.21026,4.99239 -6.78543,5.17778 -1.68598,0.0874 -2.1833,0.007 -3.30729,-0.53448 z m -8.24654,-16.83451 c -1.38894,-0.34357 -3.238108,-1.57642 -4.054113,-2.70288 -1.102341,-1.52174 -1.410338,-2.67828 -1.262712,-4.74155 0.273704,-3.825375 3.073065,-6.395547 6.968155,-6.397648 2.06658,-0.0011 3.62513,0.688191 5.03754,2.227963 3.98911,4.348805 1.38768,11.061005 -4.52774,11.682465 -0.72761,0.0765 -1.70011,0.0457 -2.16113,-0.0683 z"
         id="path1"
         sodipodi:nodetypes="csscccccccsscccccsscssscccsscssssssssscssssscssscsssssscccssccsccssssscccsssssssssssssssssssssscssssccssssccc"
         clip-path="url(#clipPath4)"
         transform="translate(0.25420752,-0.52364026)" /></g></g></svg>
